<svg width="97" height="20" viewBox="0 0 97 20" fill="none" xmlns="http://www.w3.org/2000/svg">
<g clip-path="url(#clip0_16_52)">
<mask id="mask0_16_52" style="mask-type:luminance" maskUnits="userSpaceOnUse" x="0" y="0" width="97" height="20">
<path d="M96.7397 0.721558H0.332947V19.6586H96.7397V0.721558Z" fill="white"/>
</mask>
<g mask="url(#mask0_16_52)">
<path fill-rule="evenodd" clip-rule="evenodd" d="M11.302 7.38607L10.9916 7.27496L2.83949 4.37435L6.6675 2.96823L6.83867 3.02806L7.15922 3.14346L11.3092 4.61796L14.6803 5.81184L14.9951 5.92295L15.1924 5.99273L11.6095 7.27496L11.302 7.38607ZM9.19292 4.34443L8.37187 4.00963L7.38843 4.35155L8.20943 4.68777L9.19292 4.34443ZM8.46765 5.30324L7.79165 5.02683L6.98516 5.30893L7.65822 5.58814L8.46765 5.30324ZM10.2083 5.01829L9.53232 4.74192L8.72294 5.02683L9.3989 5.30324L10.2083 5.01829ZM7.54943 3.65348L6.86041 3.37567L6.06264 3.65776L6.75017 3.93841L7.54943 3.65348ZM6.0612 4.06236L4.65559 4.54816L5.82765 5.02683L7.23321 4.53962L6.0612 4.06236ZM4.51489 2.49524L5.29235 2.23881L5.94657 2.50094L5.16765 2.7588L4.51489 2.49524ZM2.99906 2.8628L1.94886 2.43968L3.20214 2.02796L4.25233 2.44966L2.99906 2.8628ZM1.88939 2.85995L2.80614 3.22894L1.71242 3.58937L0.795672 3.22039L1.88939 2.85995ZM1.24099 1.71881L2.00253 2.02511L1.09449 2.32429L0.332947 2.01799L1.24099 1.71881ZM3.19342 1.16177L3.69532 1.36407L3.0977 1.56067L2.59726 1.3598L3.19342 1.16177ZM1.30481 0.721558L1.80526 0.922433L1.20908 1.12046L0.707188 0.918159L1.30481 0.721558ZM56.9478 16.5238C54.6919 16.5238 53.5143 15.0293 53.5143 13.0106V11.8709C53.5143 9.8522 54.6919 8.35626 56.9478 8.35626C59.2037 8.35626 60.3857 9.84931 60.3857 11.868V13.0078C60.3857 15.0293 59.2037 16.5238 56.9478 16.5238ZM58.4855 11.868C58.4855 10.7098 57.9543 9.96189 56.9478 9.96189C55.9413 9.96189 55.4101 10.7098 55.4101 11.868V13.0078C55.4101 14.1646 55.9423 14.9125 56.9478 14.9125C57.9529 14.9125 58.4855 14.1646 58.4855 13.0078V11.868ZM65.2812 16.5238C64.8199 16.5202 64.3591 16.4874 63.9017 16.4255V18.9243C63.9017 18.9999 63.8713 19.0724 63.8168 19.1258C63.7623 19.1792 63.6886 19.2093 63.6119 19.2093H62.2902C62.2136 19.2093 62.1393 19.1792 62.0853 19.1258C62.0304 19.0724 62 18.9999 62 18.9243V9.10139C62 8.89053 62.0579 8.80507 62.389 8.72099C63.3329 8.4857 64.3027 8.36232 65.2769 8.35342C67.5892 8.35342 68.7104 9.69403 68.7104 11.8951V12.9821C68.7148 15.1832 67.5936 16.5238 65.2812 16.5238ZM66.8175 11.8951C66.8175 10.7383 66.5157 9.87781 65.2812 9.87781C64.8194 9.87355 64.3581 9.90645 63.9017 9.97609V14.9011C64.3591 14.9607 64.8199 14.994 65.2812 15.0008C66.5157 15.0008 66.8175 14.1461 66.8175 12.9821V11.8951ZM76.6317 13.0819H71.9463V13.1231C71.9463 13.9424 72.2919 14.9153 73.671 14.9153C74.7199 14.9153 75.711 14.8313 76.314 14.7729H76.3579C76.5025 14.7729 76.6158 14.8441 76.6158 14.9852V15.9169C76.6158 16.142 76.5738 16.2403 76.314 16.283C75.3972 16.4628 74.4625 16.5431 73.5279 16.5224C72.0904 16.5224 70.0466 15.7616 70.0466 12.9807V11.9378C70.0466 9.73678 71.297 8.35342 73.4956 8.35342C75.6946 8.35342 76.9219 9.83932 76.9219 11.9378V12.7285C76.9219 12.9536 76.8322 13.0819 76.6317 13.0819ZM75.0072 11.6985C75.0072 10.5973 74.3893 9.96189 73.4989 9.96189C72.6081 9.96189 71.9613 10.583 71.9613 11.6985V11.7541H75.0072V11.6985ZM84.5751 16.1577C83.6303 16.3918 82.661 16.5147 81.6873 16.5238C79.3663 16.5238 78.2537 15.1832 78.2537 12.9821V11.8951C78.2537 9.69403 79.3735 8.35342 81.6873 8.35342C82.1486 8.35764 82.6094 8.39097 83.0664 8.45317V5.95434C83.0664 5.87878 83.0972 5.8063 83.1512 5.75285C83.2061 5.69944 83.2794 5.66943 83.3565 5.66943H84.6778C84.7549 5.66943 84.8287 5.69944 84.8831 5.75285C84.9376 5.8063 84.968 5.87878 84.968 5.95434V15.7844C84.9636 15.9881 84.9 16.0736 84.5751 16.1577ZM83.0664 9.98182C82.6089 9.9234 82.1481 9.89059 81.6873 9.88349C80.4513 9.88349 80.1491 10.7383 80.1491 11.9008V12.9878C80.1491 14.1447 80.4513 15.0065 81.6873 15.0065C82.149 15.0111 82.6104 14.9778 83.0664 14.9068V9.98182ZM88.5264 7.39464H87.1323C87.0542 7.39474 86.979 7.36505 86.9231 7.31193C86.8667 7.25882 86.8339 7.18633 86.8306 7.10973V5.8703C86.8334 5.79356 86.8662 5.72084 86.9226 5.66768C86.979 5.61446 87.0542 5.58497 87.1323 5.58535H88.5264C88.6035 5.58535 88.6772 5.61536 88.7317 5.66881C88.7857 5.72222 88.8165 5.7947 88.8165 5.8703V7.11257C88.8156 7.18761 88.7847 7.25938 88.7303 7.31217C88.6763 7.36505 88.6025 7.39464 88.5264 7.39464ZM88.483 16.4112H87.1598C87.0817 16.4086 87.0079 16.3762 86.9535 16.3209C86.8995 16.2656 86.8696 16.1917 86.8696 16.1149V8.73524C86.8696 8.65968 86.9005 8.5872 86.9549 8.5338C87.0094 8.4803 87.0827 8.45033 87.1598 8.45033H88.483C88.5601 8.45033 88.6334 8.4803 88.6878 8.5338C88.7423 8.5872 88.7732 8.65968 88.7732 8.73524V16.1149C88.7732 16.1917 88.7433 16.2656 88.6893 16.3209C88.6348 16.3762 88.5611 16.4086 88.483 16.4112ZM96.3985 16.4112H95.177C95.1003 16.4112 95.0261 16.3813 94.9721 16.3278C94.9176 16.2744 94.8868 16.2019 94.8868 16.1263V15.9012C94.2818 16.2889 93.5785 16.5035 92.856 16.5209C91.6639 16.5209 90.3716 16.0707 90.3716 14.1646V14.1133C90.3716 12.5034 91.3766 11.6714 93.8774 11.6714H94.7827V11.0489C94.7827 10.1314 94.3662 9.90915 93.5173 9.90915C92.736 9.90669 91.9546 9.94428 91.1766 10.0217H91.1043C90.9587 10.0217 90.8459 9.97893 90.8459 9.78237V8.87628C90.8459 8.72099 90.9312 8.62129 91.1187 8.57996C91.9088 8.42747 92.7123 8.35163 93.5173 8.35342C95.5583 8.35342 96.6785 9.24242 96.6785 11.0489V16.1292C96.678 16.2025 96.6481 16.2728 96.5961 16.3254C96.544 16.3779 96.4732 16.4087 96.3985 16.4112ZM94.7899 12.9123H93.8846C92.5793 12.9123 92.2891 13.3212 92.2891 14.1119V14.1674C92.2891 14.8598 92.6053 15.0421 93.3231 15.0421C93.8374 15.0307 94.3416 14.8952 94.7899 14.6475V12.9123ZM11.9257 7.60551L11.6095 7.71804V19.3588L15.4418 17.2617V10.4021L19.6731 8.89337L20.0299 8.76516L20.056 4.71487L11.9257 7.60551ZM15.3055 5.59534L15.613 5.70503L15.8161 5.7777L19.7615 4.37439L15.9335 2.96685L15.4418 3.1435L11.9329 4.39577L14.9951 5.4856L15.3055 5.59534ZM28.7172 16.4255C28.3952 16.485 28.0686 16.5179 27.741 16.5238C26.1178 16.5238 25.4564 16.1719 25.4564 14.2814V9.84926L24.1059 9.65269C24.0306 9.64796 23.9595 9.61648 23.9061 9.56402C23.8527 9.51157 23.8206 9.44178 23.8158 9.36774V8.7352C23.8158 8.65964 23.8464 8.5872 23.9007 8.53375C23.9552 8.4803 24.029 8.45029 24.1059 8.45029H25.4564V7.29489C25.4608 7.22075 25.4929 7.15083 25.5464 7.09832C25.5998 7.04582 25.671 7.01439 25.7465 7.00998L27.0825 6.78487H27.1404C27.1701 6.78151 27.2002 6.78458 27.2286 6.79382C27.257 6.803 27.2829 6.81815 27.3047 6.83822C27.3266 6.85825 27.3436 6.88277 27.3549 6.90995C27.366 6.93717 27.3711 6.96643 27.3696 6.99573V8.45313H28.6635C28.7405 8.45313 28.8143 8.48314 28.8687 8.53659C28.9231 8.59004 28.9537 8.66248 28.9537 8.73804V9.57008C28.9537 9.64564 28.9231 9.71807 28.8687 9.77152C28.8143 9.82498 28.7405 9.85499 28.6635 9.85499H27.3696V14.2814C27.3696 14.9866 27.4131 15.0706 27.931 15.0706H28.6925C28.8797 15.0706 28.9942 15.1419 28.9942 15.2829V16.1719C28.9914 16.3129 28.9087 16.3927 28.7172 16.4255ZM36.62 13.0818H31.9361V13.1231C31.9361 13.9423 32.2796 14.9153 33.6607 14.9153C34.7094 14.9153 35.7002 14.8313 36.3036 14.7729H36.347C36.4923 14.7729 36.6052 14.8441 36.6052 14.9851V15.9169C36.6052 16.142 36.5617 16.2403 36.3036 16.283C35.3859 16.4628 34.451 16.5431 33.5155 16.5223C32.0795 16.5223 30.0343 15.7615 30.0343 12.9807V11.9378C30.0343 9.73673 31.2845 8.35342 33.4837 8.35342C35.6829 8.35342 36.907 9.83932 36.907 11.9378V12.7285C36.907 12.9536 36.8213 13.0818 36.62 13.0818ZM35.0011 11.6985C35.0011 10.5973 34.3832 9.96184 33.4924 9.96184C32.6018 9.96184 31.9549 10.583 31.9549 11.6985V11.754H35.0011V11.6985ZM43.3722 16.3414C42.7635 16.4734 42.1413 16.5347 41.5184 16.5238C39.6501 16.5238 38.2416 15.3954 38.2416 13.0946V11.7825C38.2416 9.48316 39.6501 8.35342 41.5184 8.35342C42.1416 8.34277 42.7638 8.40446 43.3722 8.53721C43.6158 8.59416 43.6738 8.67966 43.6738 8.90331V9.82081C43.6738 9.96326 43.5591 10.0331 43.4157 10.0331H43.3722C42.7577 9.95441 42.1379 9.92151 41.5184 9.93476C40.8422 9.93476 40.1389 10.3152 40.1389 11.7868V13.099C40.1389 14.5677 40.8422 14.9509 41.5184 14.9509C42.1379 14.9634 42.7574 14.9306 43.3722 14.8527H43.4157C43.5606 14.8527 43.6738 14.9225 43.6738 15.0635V15.981C43.6738 16.2004 43.6158 16.2844 43.3722 16.3414ZM51.604 16.4112H50.2827C50.2042 16.4086 50.1304 16.3762 50.0764 16.3209C50.022 16.2656 49.9921 16.1917 49.9926 16.1149V11.472C49.9926 10.2453 49.7766 9.93476 48.813 9.93476C48.3259 9.93476 47.7499 10.1043 47.1464 10.4134V16.1121C47.1467 16.1888 47.1168 16.2627 47.0626 16.3181C47.0086 16.3734 46.9346 16.4058 46.8563 16.4084H45.535C45.4567 16.4058 45.3827 16.3734 45.3287 16.3181C45.2745 16.2627 45.2442 16.1888 45.2449 16.1121V5.95429C45.2449 5.87873 45.2754 5.8063 45.3297 5.75285C45.3842 5.6994 45.4579 5.66938 45.535 5.66938H46.8563C46.9334 5.66938 47.0071 5.6994 47.0614 5.75285C47.1159 5.8063 47.1464 5.87873 47.1464 5.95429V8.87628C47.6935 8.55146 48.2966 8.35342 49.3221 8.35342C51.3051 8.35342 51.8942 9.73673 51.8942 11.472V16.1149C51.8947 16.1917 51.8643 16.2656 51.8103 16.3209C51.7558 16.3762 51.6821 16.4086 51.604 16.4112ZM10.6761 7.60551L10.9924 7.71804V19.3574L7.16004 17.2617V6.35609L10.6761 7.60551ZM6.54068 6.13661L2.5444 4.71479L2.5705 8.76507L2.92734 8.89327L6.54068 10.1826V6.13661Z" fill="white"/>
</g>
</g>
<defs>
<clipPath id="clip0_16_52">
<rect width="96.4068" height="18.937" fill="white" transform="translate(0.332947 0.721558)"/>
</clipPath>
</defs>
</svg>
