<svg width="110" height="20" viewBox="0 0 110 20" fill="none" xmlns="http://www.w3.org/2000/svg">
<g clip-path="url(#clip0_16_49)">
<path d="M17.5909 11.9416C17.2736 12.1306 16.9034 12.165 16.6213 12.0103C16.2688 11.8041 16.0572 11.3401 16.0572 10.7043V8.76241C16.0572 7.83444 15.6871 7.16423 15.0525 6.99239C13.9772 6.68306 13.1663 7.97191 12.8666 8.45308L10.9628 11.426V7.7657C10.9452 6.92365 10.6632 6.42529 10.1343 6.27063C9.78177 6.16752 9.25294 6.21908 8.74174 6.9752L4.49346 13.6085C3.92937 12.5602 3.6297 11.3917 3.6297 10.2059C3.6297 6.20189 6.92608 2.95398 10.9628 2.95398C14.9996 2.95398 18.296 6.20189 18.296 10.2059V10.2231V10.2403C18.3312 11.0136 18.0844 11.6323 17.5909 11.9416ZM19.9177 10.2059V10.1887V10.1716C19.9001 5.30829 15.881 1.33862 10.9628 1.33862C6.02707 1.33862 2.00795 5.30829 2.00795 10.2059C2.00795 15.0864 6.02707 19.0732 10.9628 19.0732C13.2368 19.0732 15.3874 18.2312 17.0444 16.7017C17.3793 16.3924 17.3969 15.8941 17.0796 15.5676C16.78 15.241 16.2688 15.2239 15.9338 15.516C15.9338 15.516 15.9338 15.516 15.9162 15.5332C14.5765 16.7705 12.7785 17.475 10.9276 17.475C8.75937 17.475 6.82032 16.5471 5.48061 15.0692L9.30582 9.08892V11.8557C9.30582 13.1789 9.83466 13.6085 10.2753 13.7288C10.716 13.8491 11.3859 13.7632 12.1086 12.6462L14.2063 9.3295C14.2768 9.2264 14.3297 9.12329 14.4002 9.05455V10.7387C14.4002 11.9759 14.9114 12.9727 15.7928 13.4538C16.5861 13.9006 17.5909 13.8491 18.4194 13.3507C19.4418 12.6977 19.9882 11.5635 19.9177 10.2059ZM32.3981 7.18142C32.6097 7.30171 32.8036 7.59385 32.8036 7.85162C32.8036 8.26405 32.451 8.60775 32.0456 8.60775C31.9398 8.60775 31.8517 8.57338 31.7635 8.55619C31.2876 8.2125 30.6882 7.9891 30.0536 7.9891C28.5553 7.9891 27.5329 9.17484 27.5329 10.6527C27.5329 12.1306 28.5729 13.2992 30.0536 13.2992C30.794 13.2992 31.4639 13.007 31.9574 12.543C32.0808 12.4571 32.2395 12.4056 32.3981 12.4056C32.8036 12.4056 33.1209 12.7149 33.1209 13.1101C33.1209 13.3679 32.9622 13.5913 32.7683 13.7116C32.0456 14.3131 31.0761 14.7083 30.0713 14.7083C27.7797 14.7083 25.9111 12.8695 25.9111 10.6012C25.9111 8.33279 27.7797 6.49403 30.0713 6.49403C30.9174 6.47685 31.7283 6.73462 32.3981 7.18142ZM36.5935 8.89989C38.1624 8.89989 39.4669 10.1887 39.4669 11.7869C39.4669 13.3679 38.1448 14.7255 36.5935 14.7255C34.9542 14.7255 33.5968 13.3851 33.5968 11.7869C33.5968 10.1887 34.9542 8.89989 36.5935 8.89989ZM36.5759 13.2992C37.2634 13.2992 37.8451 12.6633 37.8451 11.8041C37.8451 10.9449 37.2634 10.395 36.5759 10.395C35.8355 10.395 35.2186 10.9277 35.2186 11.8041C35.2186 12.6461 35.8355 13.2992 36.5759 13.2992ZM40.454 13.8319V9.77631C40.454 9.32951 40.8066 8.96863 41.2649 8.96863C41.7056 8.96863 42.0758 9.32951 42.0758 9.77631V13.8319C42.0758 14.2787 41.7056 14.6396 41.2649 14.6396C40.8242 14.6396 40.454 14.2615 40.454 13.8319ZM40.3306 7.43919C40.3306 6.90646 40.7537 6.49403 41.2649 6.49403C41.7937 6.49403 42.2168 6.92365 42.2168 7.43919C42.2168 7.95473 41.7937 8.36716 41.2649 8.36716C40.736 8.34998 40.3306 7.93754 40.3306 7.43919ZM45.1782 11.6323V13.8319C45.1782 14.2787 44.808 14.6396 44.3674 14.6396C43.9267 14.6396 43.5565 14.2787 43.5565 13.8319V9.58727C43.5565 9.24358 43.8385 8.96863 44.1911 8.96863C44.5436 8.96863 44.808 9.26077 44.808 9.58727C45.4603 8.98581 46.042 8.89989 46.5884 8.89989C48.2102 8.89989 48.9329 10.0856 48.9329 11.4432V13.8319C48.9329 14.2787 48.5627 14.6396 48.1221 14.6396C47.6814 14.6396 47.3112 14.2787 47.3112 13.8319V11.6323C47.3112 10.9449 47.223 10.3606 46.2006 10.3606C45.4779 10.3606 45.1782 10.9449 45.1782 11.6323ZM54.186 12.4743C53.9921 12.4743 53.8687 12.3884 53.7629 12.2681L51.8768 10.2747V13.8319C51.8768 14.2787 51.5066 14.6396 51.0659 14.6396C50.6252 14.6396 50.255 14.2787 50.255 13.8319V6.78617C50.3079 6.66588 50.4313 6.57995 50.5547 6.57995C50.6957 6.57995 50.8191 6.70025 50.9072 6.78617L53.9216 10.0856C54.0097 10.1887 54.1155 10.2403 54.186 10.2403C54.2389 10.2403 54.3623 10.1887 54.4504 10.0856L57.4647 6.78617C57.5529 6.70025 57.6586 6.57995 57.8173 6.57995C57.9583 6.57995 58.0817 6.66588 58.117 6.78617V13.8319C58.117 14.2787 57.7644 14.6396 57.3061 14.6396C56.8654 14.6396 56.4952 14.2787 56.4952 13.8319V10.2747L54.6091 12.2681C54.468 12.3884 54.3446 12.4743 54.186 12.4743ZM61.9774 13.2992C62.7002 13.2992 63.3172 12.6633 63.3172 11.8041C63.3172 10.9449 62.6825 10.3778 61.9774 10.3778C61.2723 10.3778 60.6906 10.962 60.6906 11.8041C60.6906 12.629 61.2547 13.2992 61.9774 13.2992ZM63.705 14.0209L63.6697 13.8319C63.3524 14.4334 62.3476 14.7083 61.713 14.7083C60.197 14.7083 59.0689 13.3679 59.0689 11.7697C59.0689 10.1887 60.2147 8.8827 61.8012 8.8827C62.0656 8.8827 62.9822 8.95144 63.6873 9.75912L63.7226 9.57009C63.7226 9.2264 63.987 8.95144 64.3396 8.95144C64.6921 8.95144 64.9742 9.24358 64.9742 9.57009V14.0037C64.9742 14.3474 64.6921 14.6224 64.3396 14.6224C63.9694 14.6396 63.705 14.3474 63.705 14.0209ZM69.434 10.3606H69.2577C68.2353 10.4121 68.0414 10.9792 68.0414 11.6323V13.8319C68.0414 14.2787 67.6712 14.6396 67.2305 14.6396C66.7898 14.6396 66.4196 14.2787 66.4196 13.8319V9.58727C66.4196 9.24358 66.7017 8.96863 67.0542 8.96863C67.4068 8.96863 67.6712 9.26077 67.6712 9.58727C68.2705 9.03736 68.7641 8.91707 69.2577 8.89989H69.4163C69.8042 8.89989 70.1567 9.2264 70.1567 9.63883C70.1743 10.0169 69.8218 10.3606 69.434 10.3606ZM75.6918 13.4538C75.7623 13.5741 75.8152 13.6944 75.8152 13.8319C75.8152 14.2443 75.4274 14.6224 75.0043 14.6224C74.7223 14.6224 74.4755 14.4162 74.2816 14.1756L72.4131 12.0619V13.8147C72.4131 14.2615 72.0429 14.6224 71.6022 14.6224C71.1615 14.6224 70.7913 14.2615 70.7913 13.8147V7.37045C70.7913 6.92365 71.1439 6.56277 71.6022 6.56277C72.0605 6.56277 72.4131 6.92365 72.4131 7.37045V11.3917L74.2816 9.38106C74.4755 9.17485 74.7047 8.95144 74.9867 8.95144C75.3921 8.95144 75.7623 9.31232 75.7623 9.72476C75.7623 9.84505 75.7271 9.98252 75.6566 10.0856L74.1758 11.6666L75.6918 13.4538ZM78.8648 10.3778C78.4241 10.3778 77.7014 10.6012 77.7014 11.2714H80.0459C80.0282 10.6012 79.2879 10.3778 78.8648 10.3778ZM80.9801 12.2853H77.7014C77.7014 13.2304 78.6356 13.3851 79.0411 13.3851C79.3407 13.3851 79.7638 13.3335 80.0987 13.1789C80.2045 13.1101 80.3632 13.0586 80.5218 13.0586C80.8744 13.0586 81.174 13.3507 81.174 13.7116C81.174 13.9522 81.0154 14.1584 80.8215 14.2787C80.3279 14.6396 79.6757 14.7255 79.0587 14.7255C77.4193 14.7255 76.062 13.8663 76.062 11.8557C76.062 10.2747 76.8905 8.89989 78.8295 8.89989C80.3984 8.89989 81.5795 9.8966 81.6147 11.6666C81.6147 11.9931 81.3327 12.2853 80.9801 12.2853ZM85.4928 14.7083H85.0521C83.8182 14.7083 83.0955 14.1756 83.0955 12.3025V10.3606H82.6724C82.2846 10.3606 81.9496 10.0169 81.9496 9.63883C81.9496 9.2264 82.3022 8.89989 82.6724 8.89989H83.0955V7.40482C83.0955 6.95802 83.448 6.59714 83.9063 6.59714C84.347 6.59714 84.7172 6.95802 84.7172 7.40482V8.89989H85.3871C85.7749 8.89989 86.1098 9.2264 86.1098 9.63883C86.1098 10.0169 85.7572 10.3606 85.3871 10.3606H84.7172V11.9931C84.7172 13.0758 84.7701 13.2992 85.2637 13.2992H85.4928C85.8806 13.2992 86.2156 13.6085 86.2156 14.0037C86.2156 14.3818 85.8806 14.7083 85.4928 14.7083ZM93.3372 7.18142C93.5487 7.30171 93.7426 7.59385 93.7426 7.85162C93.7426 8.26405 93.39 8.60775 92.9846 8.60775C92.8788 8.60775 92.7907 8.57338 92.7026 8.55619C92.2266 8.2125 91.6273 7.9891 90.9927 7.9891C89.4943 7.9891 88.4719 9.17484 88.4719 10.6527C88.4719 12.1306 89.5119 13.2992 90.9927 13.2992C91.733 13.2992 92.4029 13.007 92.8965 12.543C93.0199 12.4571 93.1785 12.4056 93.3372 12.4056C93.7426 12.4056 94.0599 12.7149 94.0599 13.1101C94.0599 13.3679 93.9012 13.5913 93.7073 13.7116C92.9846 14.3131 92.0151 14.7083 91.0103 14.7083C88.7187 14.7083 86.8502 12.8695 86.8502 10.6012C86.8502 8.33279 88.7187 6.49403 91.0103 6.49403C91.8564 6.47685 92.6849 6.73462 93.3372 7.18142ZM97.4444 13.2992C98.1671 13.2992 98.7841 12.6633 98.7841 11.8041C98.7841 10.9449 98.1495 10.3778 97.4444 10.3778C96.7217 10.3778 96.1576 10.962 96.1576 11.8041C96.1576 12.629 96.7393 13.2992 97.4444 13.2992ZM99.1719 14.0209L99.1367 13.8319C98.8194 14.4334 97.8146 14.7083 97.18 14.7083C95.664 14.7083 94.5358 13.3679 94.5358 11.7697C94.5358 10.1887 95.6816 8.8827 97.2681 8.8827C97.5325 8.8827 98.4492 8.95144 99.1543 9.75912L99.1896 9.57009C99.1896 9.2264 99.454 8.95144 99.8065 8.95144C100.159 8.95144 100.441 9.24358 100.441 9.57009V14.0037C100.441 14.3474 100.159 14.6224 99.8065 14.6224C99.4363 14.6396 99.1719 14.3474 99.1719 14.0209ZM104.866 13.2992C105.588 13.2992 106.153 12.629 106.153 11.8041C106.153 10.9449 105.571 10.3778 104.866 10.3778C104.143 10.3778 103.526 10.9449 103.526 11.8041C103.526 12.6633 104.143 13.2992 104.866 13.2992ZM103.526 14.2443V16.2549C103.526 16.7017 103.156 17.0626 102.715 17.0626C102.274 17.0626 101.904 16.7017 101.904 16.2549V9.58727C101.904 9.24358 102.186 8.96863 102.539 8.96863C102.891 8.96863 103.156 9.26076 103.156 9.65601C103.755 9.05455 104.495 8.89989 105.06 8.89989C106.628 8.89989 107.792 10.1887 107.792 11.7869C107.792 13.3679 106.681 14.7255 105.148 14.7255C104.672 14.7083 103.967 14.5708 103.526 14.2443Z" fill="white"/>
</g>
<defs>
<clipPath id="clip0_16_49">
<rect width="108.458" height="18.937" fill="white" transform="translate(0.875305 0.721558)"/>
</clipPath>
</defs>
</svg>
