<svg width="931" height="265" viewBox="0 0 931 265" fill="none" xmlns="http://www.w3.org/2000/svg">
<path d="M52.757 164.731C52.757 143.888 52.757 133.467 56.8831 124.893C58.7379 121.039 61.1714 117.515 64.0928 114.452C70.592 107.638 80.1101 104.274 99.1464 97.5479L136.619 84.3067C163.894 74.6686 177.532 69.8498 187.705 75.234C190.096 76.499 192.291 78.1267 194.217 80.063C202.418 88.3036 202.418 103.235 202.418 133.098C202.418 153.775 202.418 164.115 197.815 172.376C196.698 174.378 195.397 176.263 193.928 178.004C187.868 185.186 178.426 188.522 159.54 195.196L115.045 210.918C91.0309 219.404 79.0235 223.647 69.7652 219.828C57.9018 214.935 52.757 203.563 52.757 193.774C52.757 187.163 52.757 174.985 52.757 164.731Z" fill="url(#paint0_linear_1004_2)"/>
<path fill-rule="evenodd" clip-rule="evenodd" d="M52.757 115.573C52.757 98.8794 52.757 85.1933 55.4349 78.0704C57.8001 71.7797 61.6389 66.1975 66.6053 61.8278C72.2288 56.8802 79.842 54.1562 95.0687 48.7089L100.318 46.8311C118 40.505 126.841 37.342 133.938 38.7643C141.619 40.3035 148.278 45.2212 152.189 52.2431C155.802 58.7314 155.802 73.5087 155.802 92.8937C155.802 108.189 155.802 115.836 153.547 122.43C151.096 129.598 146.755 135.91 141.017 140.65C135.738 145.011 128.762 147.507 114.811 152.498C114.811 152.498 90.7855 161.004 75.8195 166.423C60.8535 171.843 52.757 182.714 52.757 194.022V115.573Z" fill="white"/>
<path d="M342.722 130.429C347.258 131.396 350.902 133.665 353.653 137.236C356.405 140.732 357.78 144.749 357.78 149.286C357.78 155.832 355.475 161.039 350.865 164.907C346.329 168.701 339.971 170.598 331.791 170.598H295.317V92.2693H330.564C338.521 92.2693 344.73 94.0917 349.192 97.7367C353.728 101.382 355.996 106.328 355.996 112.577C355.996 117.189 354.769 121.019 352.315 124.069C349.935 127.119 346.738 129.239 342.722 130.429ZM314.391 123.958H326.883C330.007 123.958 332.386 123.288 334.022 121.949C335.732 120.536 336.587 118.49 336.587 115.812C336.587 113.135 335.732 111.089 334.022 109.676C332.386 108.262 330.007 107.556 326.883 107.556H314.391V123.958ZM328.445 155.2C331.642 155.2 334.096 154.493 335.807 153.08C337.591 151.592 338.484 149.472 338.484 146.72C338.484 143.968 337.554 141.81 335.695 140.248C333.91 138.686 331.419 137.905 328.222 137.905H314.391V155.2H328.445ZM427.513 138.463C427.513 140.248 427.402 142.108 427.179 144.042H384.012C384.31 147.91 385.537 150.885 387.693 152.968C389.924 154.977 392.638 155.981 395.836 155.981C400.595 155.981 403.904 153.972 405.763 149.956H426.063C425.022 154.047 423.126 157.729 420.375 161.002C417.698 164.275 414.314 166.841 410.225 168.701C406.135 170.561 401.562 171.49 396.505 171.49C390.407 171.49 384.979 170.189 380.22 167.585C375.461 164.982 371.743 161.262 369.066 156.427C366.389 151.592 365.05 145.939 365.05 139.467C365.05 132.996 366.352 127.342 368.954 122.507C371.631 117.672 375.349 113.953 380.108 111.349C384.868 108.746 390.333 107.444 396.505 107.444C402.528 107.444 407.882 108.709 412.567 111.238C417.252 113.767 420.895 117.375 423.498 122.061C426.175 126.747 427.513 132.215 427.513 138.463ZM407.994 133.442C407.994 130.169 406.878 127.565 404.647 125.631C402.417 123.697 399.628 122.73 396.282 122.73C393.084 122.73 390.37 123.66 388.139 125.52C385.983 127.379 384.644 130.02 384.124 133.442H407.994ZM462.896 171.49C457.467 171.49 452.634 170.561 448.395 168.701C444.157 166.841 440.81 164.312 438.357 161.113C435.903 157.841 434.527 154.196 434.23 150.179H453.08C453.303 152.336 454.307 154.084 456.092 155.423C457.876 156.762 460.07 157.431 462.672 157.431C465.052 157.431 466.873 156.985 468.138 156.092C469.476 155.125 470.145 153.898 470.145 152.41C470.145 150.625 469.216 149.323 467.357 148.505C465.498 147.612 462.487 146.645 458.322 145.604C453.861 144.563 450.143 143.484 447.168 142.368C444.194 141.178 441.628 139.356 439.472 136.901C437.315 134.372 436.237 130.987 436.237 126.747C436.237 123.177 437.204 119.941 439.137 117.04C441.145 114.064 444.045 111.721 447.838 110.01C451.704 108.299 456.277 107.444 461.557 107.444C469.364 107.444 475.499 109.378 479.961 113.246C484.497 117.114 487.1 122.247 487.769 128.644H470.145C469.848 126.487 468.881 124.776 467.245 123.511C465.684 122.247 463.602 121.615 460.999 121.615C458.769 121.615 457.058 122.061 455.868 122.954C454.679 123.772 454.084 124.925 454.084 126.412C454.084 128.198 455.013 129.537 456.872 130.429C458.806 131.322 461.78 132.215 465.795 133.107C470.406 134.297 474.161 135.488 477.061 136.678C479.961 137.794 482.489 139.653 484.646 142.257C486.876 144.786 488.029 148.208 488.103 152.522C488.103 156.167 487.062 159.44 484.98 162.341C482.972 165.168 480.035 167.399 476.168 169.036C472.376 170.672 467.952 171.49 462.896 171.49ZM534.463 154.419V170.598H524.759C517.843 170.598 512.452 168.924 508.585 165.577C504.718 162.155 502.785 156.613 502.785 148.951V124.181H495.2V108.337H502.785V93.1619H521.858V108.337H534.351V124.181H521.858V149.175C521.858 151.034 522.305 152.373 523.197 153.191C524.089 154.01 525.576 154.419 527.659 154.419H534.463ZM676.473 92.2693L656.061 170.598H632.972L620.479 119.048L607.541 170.598H584.452L564.597 92.2693H585.009L596.275 149.286L610.217 92.2693H631.187L644.572 149.286L655.949 92.2693H676.473ZM682.245 139.356C682.245 132.958 683.435 127.342 685.814 122.507C688.268 117.672 691.577 113.953 695.742 111.349C699.906 108.746 704.553 107.444 709.684 107.444C714.071 107.444 717.901 108.337 721.173 110.122C724.519 111.907 727.085 114.25 728.869 117.151V108.337H747.943V170.598H728.869V161.783C727.01 164.684 724.408 167.027 721.061 168.812C717.789 170.598 713.96 171.49 709.573 171.49C704.516 171.49 699.906 170.189 695.742 167.585C691.577 164.907 688.268 161.151 685.814 156.316C683.435 151.406 682.245 145.753 682.245 139.356ZM728.869 139.467C728.869 134.706 727.531 130.95 724.854 128.198C722.251 125.445 719.054 124.069 715.261 124.069C711.469 124.069 708.234 125.445 705.557 128.198C702.955 130.876 701.653 134.595 701.653 139.356C701.653 144.116 702.955 147.91 705.557 150.737C708.234 153.489 711.469 154.865 715.261 154.865C719.054 154.865 722.251 153.489 724.854 150.737C727.531 147.984 728.869 144.228 728.869 139.467ZM780.815 88.0293V170.598H761.741V88.0293H780.815ZM813.71 88.0293V170.598H794.637V88.0293H813.71ZM886.202 138.463C886.202 140.248 886.091 142.108 885.868 144.042H842.701C842.999 147.91 844.226 150.885 846.382 152.968C848.613 154.977 851.327 155.981 854.525 155.981C859.284 155.981 862.593 153.972 864.452 149.956H884.752C883.711 154.047 881.815 157.729 879.064 161.002C876.387 164.275 873.003 166.841 868.914 168.701C864.824 170.561 860.251 171.49 855.194 171.49C849.096 171.49 843.668 170.189 838.909 167.585C834.15 164.982 830.432 161.262 827.755 156.427C825.078 151.592 823.739 145.939 823.739 139.467C823.739 132.996 825.041 127.342 827.643 122.507C830.32 117.672 834.038 113.953 838.797 111.349C843.557 108.746 849.022 107.444 855.194 107.444C861.217 107.444 866.571 108.709 871.256 111.238C875.941 113.767 879.584 117.375 882.187 122.061C884.864 126.747 886.202 132.215 886.202 138.463ZM866.683 133.442C866.683 130.169 865.567 127.565 863.336 125.631C861.106 123.697 858.317 122.73 854.971 122.73C851.773 122.73 849.059 123.66 846.828 125.52C844.672 127.379 843.333 130.02 842.813 133.442H866.683ZM930.954 154.419V170.598H921.25C914.334 170.598 908.943 168.924 905.076 165.577C901.209 162.155 899.276 156.613 899.276 148.951V124.181H891.691V108.337H899.276V93.1619H918.35V108.337H930.842V124.181H918.35V149.175C918.35 151.034 918.796 152.373 919.688 153.191C920.58 154.01 922.067 154.419 924.15 154.419H930.954Z" fill="white"/>
<defs>
<linearGradient id="paint0_linear_1004_2" x1="197.143" y1="170.51" x2="56.4669" y2="92.5028" gradientUnits="userSpaceOnUse">
<stop stop-color="white"/>
<stop offset="1" stop-color="white" stop-opacity="0.12"/>
</linearGradient>
</defs>
</svg>
