<svg width="66" height="66" viewBox="0 0 66 66" fill="none" xmlns="http://www.w3.org/2000/svg">
<rect width="64.125" height="64.125" transform="translate(0.9375 0.9375)" fill="white"/>
<path d="M14.4375 40.9229C14.4375 35.7994 14.4375 33.2377 15.4887 31.13C15.9611 30.1826 16.581 29.3163 17.3252 28.5634C18.9809 26.8882 21.4055 26.0615 26.2548 24.4079L35.8007 21.1529C42.7488 18.7837 46.2229 17.5991 48.8145 18.9227C49.4234 19.2337 49.9825 19.6337 50.4734 20.1097C52.5625 22.1354 52.5625 25.8059 52.5625 33.1469C52.5625 38.2299 52.5625 40.7714 51.3897 42.8022C51.1054 43.2945 50.7738 43.7579 50.3996 44.1859C48.856 45.9513 46.4505 46.7715 41.6395 48.412L30.305 52.2769C24.1875 54.3629 21.1287 55.4059 18.7702 54.4672C15.7481 53.2644 14.4375 50.4687 14.4375 48.0624C14.4375 46.4374 14.4375 43.4436 14.4375 40.9229Z" fill="url(#paint0_linear_4952_40261)"/>
<path fill-rule="evenodd" clip-rule="evenodd" d="M14.4375 28.8388C14.4375 24.7353 14.4375 21.371 15.1197 19.62C15.7222 18.0736 16.7001 16.7014 17.9653 15.6272C19.3978 14.411 21.3372 13.7414 25.2161 12.4023L26.5532 11.9407C31.0575 10.3856 33.3097 9.60806 35.1178 9.95769C37.0745 10.3361 38.7707 11.545 39.767 13.2711C40.6875 14.8661 40.6875 18.4987 40.6875 23.2639C40.6875 27.0238 40.6875 28.9037 40.1131 30.5245C39.4886 32.2866 38.3827 33.8383 36.9209 35.0036C35.5794 36.073 33.8074 36.6861 30.2698 37.9074C30.2604 37.9107 30.2557 37.9123 30.2513 37.9138C30.2473 37.9152 30.2435 37.9165 30.2395 37.9179C30.235 37.9194 30.231 37.9208 30.2228 37.9236C29.8171 38.0622 23.9908 40.0538 20.3125 41.3391C16.5 42.6714 14.4375 45.3438 14.4375 48.1235V28.8388Z" fill="url(#paint1_linear_4952_40261)"/>
<path fill-rule="evenodd" clip-rule="evenodd" d="M14.4375 40.9231V48.0627C14.4375 48.0732 14.4375 48.0838 14.4376 48.0944C14.452 45.3252 16.5134 42.6668 20.3125 41.3393C23.9908 40.0539 29.8171 38.0624 30.2228 37.9237L30.2395 37.918L30.2513 37.914L30.2698 37.9076C33.8074 36.6863 35.5794 36.0732 36.9209 35.0037C38.3827 33.8384 39.4886 32.2867 40.1131 30.5247C40.6875 28.9038 40.6875 27.0239 40.6875 23.264C40.6875 21.9251 40.6875 20.6756 40.6671 19.5356C39.2592 19.9739 37.6535 20.5214 35.8007 21.1532L26.2548 24.4081C21.4055 26.0617 18.9809 26.8884 17.3252 28.5636C16.581 29.3165 15.9611 30.1828 15.4887 31.1302C14.4375 33.2379 14.4375 35.7996 14.4375 40.9231Z" fill="url(#paint2_linear_4952_40261)"/>
<defs>
<linearGradient id="paint0_linear_4952_40261" x1="54.2187" y1="45.1562" x2="11.7168" y2="29.095" gradientUnits="userSpaceOnUse">
<stop stop-color="#626AFF"/>
<stop offset="1" stop-color="#4650FF"/>
</linearGradient>
<linearGradient id="paint1_linear_4952_40261" x1="12.0312" y1="29" x2="45.125" y2="14.375" gradientUnits="userSpaceOnUse">
<stop stop-color="#54FFFF"/>
<stop offset="1" stop-color="#68FFFF"/>
</linearGradient>
<linearGradient id="paint2_linear_4952_40261" x1="15.8125" y1="29.8348" x2="70.9299" y2="44.4205" gradientUnits="userSpaceOnUse">
<stop stop-color="#21BEFF"/>
<stop offset="1" stop-color="#68FFFF"/>
</linearGradient>
</defs>
</svg>
