<svg width="101" height="40" viewBox="0 0 101 40" fill="none" xmlns="http://www.w3.org/2000/svg">
<path d="M54.583 12.998V12.3714H52V29.0826H54.583V24.5798C54.583 24.0924 54.583 23.6978 54.536 23.164H54.583C55.5223 24.6959 57.119 25.5082 58.9976 25.5082C62.1676 25.5082 64.9384 23.1176 64.9384 18.6845C64.9384 14.3442 62.1676 12 58.9976 12C57.1895 12 55.5927 12.7891 54.583 14.3442H54.536C54.583 13.8336 54.583 13.4622 54.583 12.998ZM58.3401 23.3033C55.9449 23.2801 54.5595 21.2608 54.5595 18.6613C54.5595 16.201 55.9449 14.2282 58.3401 14.205C60.6882 14.1817 62.238 15.9921 62.238 18.6845C62.238 21.4465 60.6882 23.3265 58.3401 23.3033Z" fill="black"/>
<path d="M78.5021 17.5936C78.5021 14.3906 75.9191 12 72.3968 12C68.6398 12 66.0333 14.5299 66.0333 18.7541C66.0333 22.8159 68.5928 25.5082 72.3968 25.5082C75.5199 25.5082 77.8446 23.6978 78.3847 21.2144H75.5669C75.1207 22.4677 73.8997 23.3033 72.3968 23.3033C70.4713 23.3033 69.0624 21.9339 68.7572 19.6593H78.5021V17.5936ZM72.3968 14.205C74.2989 14.205 75.6138 15.5047 75.8956 17.3847H68.7806C69.1094 15.5743 70.4479 14.205 72.3968 14.205Z" fill="black"/>
<path d="M80.401 25.1369H82.984V17.9418C82.984 15.4815 84.3459 14.205 86.4593 14.205H87.8447V12H86.7411C84.839 12 83.665 13.2533 82.984 14.3442H82.937V12.3714H80.401V25.1369Z" fill="black"/>
<path d="M99.9198 22.9087C99.5676 22.9087 99.4032 22.6998 99.4032 22.282V16.6652C99.4032 13.9729 98.0883 12 94.2138 12C90.4567 12 88.7425 13.8568 88.5547 16.5027H91.1377C91.302 15.0637 92.4526 14.205 94.2138 14.205C95.7166 14.205 96.7498 14.8548 96.7498 15.8761C96.7498 16.7116 96.1628 17.2223 94.2373 17.2223H93.2041C90.1279 17.2223 88.0616 18.4524 88.0616 21.2608C88.0616 24.2085 90.2454 25.5546 92.8049 25.5546C94.7069 25.5546 96.3271 24.7191 96.9611 22.9319C97.0316 24.2317 97.9004 25.1369 99.5441 25.1369H101V22.9087H99.9198ZM96.8202 19.1951C96.8202 22.0731 95.247 23.3265 93.2275 23.3265C91.4664 23.3265 90.762 22.3052 90.762 21.2608C90.762 20.2628 91.3725 19.4504 93.251 19.4504H93.6267C95.4348 19.4504 96.5619 18.8237 96.7968 17.7329H96.8202V19.1951Z" fill="black"/>
<rect width="40" height="40" rx="12" fill="#1F1F23"/>
<path d="M21.4627 11.5628C21.9882 13.7049 21.8105 15.5892 21.0659 15.7715C20.3212 15.9537 19.2915 14.3649 18.766 12.2229C18.2405 10.0808 18.4181 8.1965 19.1628 8.01424C19.9074 7.83198 20.9371 9.42074 21.4627 11.5628Z" fill="white"/>
<path d="M30.1404 13.4045C28.9766 12.191 26.6611 12.5199 24.9687 14.1392C23.2763 15.7585 22.8478 18.0549 24.0116 19.2684C25.1754 20.482 27.4909 20.153 29.1833 18.5338C30.8757 16.9145 31.3042 14.6181 30.1404 13.4045Z" fill="white"/>
<path d="M20.8839 31.9866C21.6286 31.8043 21.7801 29.8135 21.2223 27.5399C20.6645 25.2663 19.6087 23.5709 18.864 23.7532C18.1193 23.9355 17.9678 25.9263 18.5256 28.1999C19.0834 30.4735 20.1392 32.1688 20.8839 31.9866Z" fill="white"/>
<path d="M13.2928 14.5155C15.4412 15.1388 17.0111 16.2323 16.7992 16.9579C16.5873 17.6835 14.6739 17.7664 12.5255 17.1431C10.3771 16.5198 8.80727 15.4263 9.01916 14.7007C9.23106 13.9752 11.1444 13.8922 13.2928 14.5155Z" fill="white"/>
<path d="M27.2368 22.7088C29.5171 23.3704 31.1938 24.4949 30.9819 25.2205C30.77 25.9461 28.7497 25.998 26.4695 25.3364C24.1892 24.6749 22.5125 23.5504 22.7244 22.8248C22.9362 22.0992 24.9565 22.0473 27.2368 22.7088Z" fill="white"/>
<path d="M15.7103 21.1864C15.1775 20.6431 13.43 21.4339 11.8072 22.9527C10.1843 24.4715 9.30058 26.1432 9.83335 26.6865C10.3661 27.2298 12.1136 26.4391 13.7365 24.9203C15.3593 23.4015 16.243 21.7298 15.7103 21.1864Z" fill="white"/>
</svg>
