<svg width="202" height="205" viewBox="0 0 202 205" fill="none" xmlns="http://www.w3.org/2000/svg">
<path d="M7.53548 186.118H0.320312V181.866H19.9688V186.118H12.7536V204.414H7.53548V186.118Z" fill="#131619"/>
<path d="M42.9605 181.866V204.414H37.7424V195.169H27.4995V204.414H22.2814V181.866H27.4995V190.756H37.7424V181.866H42.9605Z" fill="#131619"/>
<path d="M58.7195 204.8C56.3789 204.8 54.2637 204.296 52.3741 203.286C50.5058 202.277 49.0349 200.892 47.9612 199.131C46.909 197.349 46.3829 195.352 46.3829 193.14C46.3829 190.928 46.909 188.942 47.9612 187.181C49.0349 185.399 50.5058 184.003 52.3741 182.994C54.2637 181.984 56.3789 181.48 58.7195 181.48C61.0602 181.48 63.1646 181.984 65.0328 182.994C66.901 184.003 68.372 185.399 69.4457 187.181C70.5193 188.942 71.0562 190.928 71.0562 193.14C71.0562 195.352 70.5193 197.349 69.4457 199.131C68.372 200.892 66.901 202.277 65.0328 203.286C63.1646 204.296 61.0602 204.8 58.7195 204.8ZM58.7195 200.355C60.0509 200.355 61.2534 200.055 62.3271 199.453C63.4008 198.831 64.2383 197.972 64.8395 196.876C65.4623 195.781 65.7737 194.536 65.7737 193.14C65.7737 191.744 65.4623 190.499 64.8395 189.404C64.2383 188.308 63.4008 187.46 62.3271 186.859C61.2534 186.236 60.0509 185.925 58.7195 185.925C57.3882 185.925 56.1856 186.236 55.112 186.859C54.0383 187.46 53.1901 188.308 52.5673 189.404C51.9661 190.499 51.6654 191.744 51.6654 193.14C51.6654 194.536 51.9661 195.781 52.5673 196.876C53.1901 197.972 54.0383 198.831 55.112 199.453C56.1856 200.055 57.3882 200.355 58.7195 200.355Z" fill="#131619"/>
<path d="M88.8487 204.414L84.5003 198.133H84.2426H79.7009V204.414H74.4828V181.866H84.2426C86.2397 181.866 87.9683 182.199 89.4285 182.865C90.9102 183.53 92.0483 184.475 92.8428 185.699C93.6374 186.923 94.0346 188.373 94.0346 190.048C94.0346 191.723 93.6266 193.172 92.8106 194.396C92.0161 195.599 90.878 196.522 89.3963 197.166L94.4534 204.414H88.8487ZM88.7521 190.048C88.7521 188.781 88.3441 187.814 87.5281 187.149C86.7121 186.462 85.5203 186.118 83.9527 186.118H79.7009V193.977H83.9527C85.5203 193.977 86.7121 193.634 87.5281 192.947C88.3441 192.26 88.7521 191.293 88.7521 190.048Z" fill="#131619"/>
<path d="M131.753 181.866L124.376 204.414H118.772L113.811 189.146L108.69 204.414H103.117L95.709 181.866H101.12L106.21 197.714L111.524 181.866H116.356L121.51 197.843L126.76 181.866H131.753Z" fill="#131619"/>
<path d="M139.516 186.827C142.201 186.827 144.262 187.471 145.701 188.759C147.14 190.026 147.859 191.948 147.859 194.525V204.414H143.156V202.256C142.211 203.866 140.451 204.671 137.874 204.671C136.542 204.671 135.383 204.446 134.395 203.995C133.429 203.544 132.688 202.921 132.172 202.127C131.657 201.332 131.399 200.43 131.399 199.421C131.399 197.811 132.001 196.544 133.203 195.62C134.427 194.697 136.306 194.235 138.84 194.235H142.834C142.834 193.14 142.501 192.302 141.836 191.723C141.17 191.121 140.171 190.821 138.84 190.821C137.917 190.821 137.004 190.971 136.102 191.272C135.222 191.551 134.47 191.937 133.847 192.431L132.044 188.92C132.988 188.255 134.116 187.739 135.426 187.374C136.757 187.009 138.121 186.827 139.516 186.827ZM139.13 201.289C139.989 201.289 140.751 201.096 141.417 200.709C142.083 200.301 142.555 199.711 142.834 198.938V197.166H139.388C137.326 197.166 136.295 197.843 136.295 199.196C136.295 199.84 136.542 200.355 137.036 200.742C137.552 201.107 138.249 201.289 139.13 201.289Z" fill="#131619"/>
<path d="M151.912 180.513H156.937V204.414H151.912V180.513Z" fill="#131619"/>
<path d="M161.105 180.513H166.13V204.414H161.105V180.513Z" fill="#131619"/>
<path d="M187.273 195.813C187.273 195.878 187.241 196.329 187.177 197.166H174.067C174.303 198.24 174.861 199.088 175.742 199.711C176.622 200.334 177.717 200.645 179.027 200.645C179.929 200.645 180.724 200.516 181.411 200.259C182.12 199.979 182.775 199.55 183.376 198.97L186.049 201.869C184.417 203.737 182.034 204.671 178.899 204.671C176.944 204.671 175.216 204.296 173.713 203.544C172.209 202.771 171.05 201.708 170.234 200.355C169.418 199.002 169.01 197.467 169.01 195.749C169.01 194.053 169.407 192.528 170.202 191.175C171.018 189.801 172.124 188.738 173.519 187.986C174.937 187.213 176.515 186.827 178.254 186.827C179.951 186.827 181.486 187.192 182.86 187.922C184.235 188.652 185.308 189.704 186.081 191.078C186.876 192.431 187.273 194.01 187.273 195.813ZM178.287 190.628C177.148 190.628 176.193 190.95 175.42 191.594C174.647 192.238 174.174 193.118 174.003 194.235H182.538C182.367 193.14 181.894 192.27 181.121 191.626C180.348 190.96 179.403 190.628 178.287 190.628Z" fill="#131619"/>
<path d="M201.301 203.576C200.807 203.941 200.195 204.22 199.465 204.414C198.756 204.585 198.005 204.671 197.21 204.671C195.148 204.671 193.549 204.145 192.411 203.093C191.294 202.041 190.736 200.495 190.736 198.455V191.336H188.062V187.471H190.736V183.251H195.76V187.471H200.077V191.336H195.76V198.39C195.76 199.12 195.943 199.689 196.308 200.097C196.695 200.484 197.231 200.677 197.919 200.677C198.713 200.677 199.39 200.463 199.948 200.033L201.301 203.576Z" fill="#131619"/>
<path fill-rule="evenodd" clip-rule="evenodd" d="M107.617 79.3517L71.349 42.7405L172.399 0.500977L107.617 79.3515L143.885 116.009L29.2412 164.11L107.617 79.3517Z" fill="url(#paint0_linear_663_1510)"/>
<defs>
<linearGradient id="paint0_linear_663_1510" x1="29.2412" y1="164.11" x2="172.399" y2="164.11" gradientUnits="userSpaceOnUse">
<stop stop-color="#00CCFF"/>
<stop offset="1" stop-color="#33FF99"/>
</linearGradient>
</defs>
</svg>
