<svg width="136" height="36" viewBox="0 0 136 36" fill="none" xmlns="http://www.w3.org/2000/svg">
<g clip-path="url(#clip0_219_110)">
<path d="M48.9875 27.4209C47.793 27.4209 46.7111 27.2305 45.7417 26.8496C44.7896 26.4515 43.9673 25.8629 43.2749 25.0839C42.5998 24.3049 42.0804 23.3442 41.7169 22.2016C41.3534 21.0418 41.1716 19.7002 41.1716 18.1769C41.1716 16.6535 41.3534 15.3033 41.7169 14.1261C42.0804 12.9317 42.5998 11.9363 43.2749 11.14C43.9673 10.3264 44.7896 9.71187 45.7417 9.29641C46.7111 8.88095 47.793 8.67322 48.9875 8.67322C50.6147 8.67322 51.9649 9.01943 53.0382 9.71187C54.1115 10.4043 54.9684 11.4516 55.6089 12.8538L52.6747 14.4118C52.415 13.5982 51.9909 12.949 51.4023 12.4643C50.8138 11.9623 50.0088 11.7113 48.9875 11.7113C47.7065 11.7113 46.6851 12.144 45.9235 13.0096C45.1791 13.8751 44.8069 15.0869 44.8069 16.6449V19.5012C44.8069 21.0764 45.1791 22.2882 45.9235 23.1364C46.6851 23.9674 47.7065 24.3828 48.9875 24.3828C50.0088 24.3828 50.8397 24.1058 51.4802 23.5519C52.1381 22.9979 52.6141 22.3142 52.9084 21.5006L55.6868 23.1364C55.029 24.4867 54.1548 25.5426 53.0642 26.3043C51.9736 27.0487 50.6147 27.4209 48.9875 27.4209Z" fill="white"/>
<path d="M63.2697 27.4209C62.3003 27.4209 61.4261 27.2565 60.6471 26.9276C59.8854 26.5987 59.2276 26.1226 58.6736 25.4994C58.137 24.8762 57.7216 24.1319 57.4273 23.2663C57.133 22.3835 56.9858 21.3968 56.9858 20.3062C56.9858 19.2156 57.133 18.2375 57.4273 17.372C57.7216 16.5064 58.137 15.7707 58.6736 15.1649C59.2276 14.5417 59.8854 14.0656 60.6471 13.7367C61.4261 13.4078 62.3003 13.2433 63.2697 13.2433C64.2391 13.2433 65.1133 13.4078 65.8923 13.7367C66.6713 14.0656 67.3291 14.5417 67.8657 15.1649C68.4197 15.7707 68.8438 16.5064 69.1381 17.372C69.4323 18.2375 69.5795 19.2156 69.5795 20.3062C69.5795 21.3968 69.4323 22.3835 69.1381 23.2663C68.8438 24.1319 68.4197 24.8762 67.8657 25.4994C67.3291 26.1226 66.6713 26.5987 65.8923 26.9276C65.1133 27.2565 64.2391 27.4209 63.2697 27.4209ZM63.2697 24.7464C64.1525 24.7464 64.845 24.4781 65.347 23.9415C65.849 23.4048 66.1 22.6172 66.1 21.5785V19.0598C66.1 18.0385 65.849 17.2595 65.347 16.7228C64.845 16.1862 64.1525 15.9179 63.2697 15.9179C62.4041 15.9179 61.7204 16.1862 61.2183 16.7228C60.7163 17.2595 60.4653 18.0385 60.4653 19.0598V21.5785C60.4653 22.6172 60.7163 23.4048 61.2183 23.9415C61.7204 24.4781 62.4041 24.7464 63.2697 24.7464Z" fill="white"/>
<path d="M73.655 11.5815C72.9626 11.5815 72.4605 11.4257 72.1489 11.1141C71.8547 10.8025 71.7075 10.4044 71.7075 9.91969V9.40037C71.7075 8.91566 71.8547 8.51751 72.1489 8.20592C72.4605 7.89432 72.9626 7.73853 73.655 7.73853C74.3301 7.73853 74.8235 7.89432 75.1351 8.20592C75.4467 8.51751 75.6025 8.91566 75.6025 9.40037V9.91969C75.6025 10.4044 75.4467 10.8025 75.1351 11.1141C74.8235 11.4257 74.3301 11.5815 73.655 11.5815ZM71.9931 13.555H75.3168V27.1094H71.9931V13.555Z" fill="white"/>
<path d="M78.6404 27.1093V13.5549H81.9641V15.814H82.0939C82.3709 15.087 82.8036 14.4811 83.3922 13.9964C83.9981 13.4944 84.829 13.2433 85.885 13.2433C87.2871 13.2433 88.3604 13.7021 89.1048 14.6196C89.8492 15.537 90.2213 16.844 90.2213 18.5405V27.1093H86.8977V18.878C86.8977 17.9086 86.7245 17.1816 86.3783 16.6969C86.0321 16.2122 85.4609 15.9698 84.6646 15.9698C84.3183 15.9698 83.9808 16.0217 83.6519 16.1256C83.3403 16.2122 83.0546 16.3506 82.795 16.5411C82.5526 16.7142 82.3536 16.9392 82.1978 17.2162C82.042 17.4759 81.9641 17.7874 81.9641 18.151V27.1093H78.6404Z" fill="white"/>
<path d="M97.8286 27.4209C96.5303 27.4209 95.4397 27.2045 94.5569 26.7718C93.674 26.3217 92.895 25.7072 92.2199 24.9282L94.2453 22.9547C94.7473 23.526 95.2926 23.9761 95.8811 24.305C96.487 24.6339 97.1795 24.7983 97.9585 24.7983C98.7548 24.7983 99.326 24.6599 99.6722 24.3829C100.036 24.1059 100.218 23.7251 100.218 23.2404C100.218 22.8422 100.088 22.5306 99.828 22.3056C99.5857 22.0632 99.1616 21.8988 98.5557 21.8122L97.2054 21.6305C95.734 21.44 94.6088 21.0246 93.8298 20.3841C93.0681 19.7263 92.6873 18.7742 92.6873 17.5278C92.6873 16.87 92.8085 16.2814 93.0508 15.7621C93.2932 15.2254 93.6394 14.7754 94.0895 14.4118C94.5396 14.031 95.0762 13.7454 95.6994 13.5549C96.3399 13.3472 97.0496 13.2433 97.8286 13.2433C98.4864 13.2433 99.0663 13.2953 99.5684 13.3991C100.088 13.4857 100.555 13.6242 100.971 13.8146C101.386 13.9877 101.767 14.2128 102.113 14.4897C102.459 14.7494 102.797 15.0437 103.126 15.3726L101.178 17.3201C100.78 16.9046 100.304 16.5584 99.7501 16.2814C99.1962 16.0044 98.5903 15.8659 97.9325 15.8659C97.2054 15.8659 96.6774 15.9958 96.3485 16.2554C96.0369 16.5151 95.8811 16.8527 95.8811 17.2681C95.8811 17.7182 96.011 18.0644 96.2706 18.3068C96.5476 18.5318 97.0064 18.6963 97.6469 18.8001L99.0231 18.9819C101.949 19.3974 103.411 20.7303 103.411 22.9807C103.411 23.6385 103.273 24.2444 102.996 24.7983C102.736 25.335 102.364 25.8024 101.879 26.2005C101.395 26.5814 100.806 26.8843 100.114 27.1093C99.4385 27.3171 98.6769 27.4209 97.8286 27.4209Z" fill="white"/>
<path d="M113.93 24.8504H113.8C113.679 25.1966 113.514 25.5255 113.306 25.8371C113.116 26.1314 112.865 26.3997 112.553 26.6421C112.259 26.8844 111.895 27.0748 111.463 27.2133C111.047 27.3518 110.563 27.421 110.009 27.421C108.606 27.421 107.533 26.9623 106.789 26.0448C106.044 25.1274 105.672 23.8204 105.672 22.1239V13.5551H108.996V21.7864C108.996 22.7212 109.178 23.4396 109.541 23.9416C109.905 24.4263 110.485 24.6686 111.281 24.6686C111.61 24.6686 111.93 24.6253 112.242 24.5388C112.571 24.4522 112.856 24.3224 113.099 24.1493C113.341 23.9589 113.54 23.7338 113.696 23.4742C113.852 23.1972 113.93 22.8769 113.93 22.5134V13.5551H117.253V27.1095H113.93V24.8504Z" fill="white"/>
<path d="M123.9 27.1093C122.758 27.1093 121.918 26.8236 121.382 26.2524C120.845 25.6811 120.577 24.8762 120.577 23.8375V7.89423H123.9V24.4607H125.692V27.1093H123.9Z" fill="white"/>
<path d="M131.794 27.1096C130.651 27.1096 129.777 26.8153 129.171 26.2268C128.583 25.6209 128.288 24.764 128.288 23.6561V16.2038H126.289V13.5552H127.327C127.829 13.5552 128.167 13.4427 128.34 13.2177C128.531 12.9753 128.626 12.6204 128.626 12.153V9.84204H131.612V13.5552H134.39V16.2038H131.612V24.4611H134.183V27.1096H131.794Z" fill="white"/>
<path d="M11.4265 0.000244141H35.0812V23.6549C35.0812 26.6854 33.8774 29.5918 31.7345 31.7347C29.5916 33.8776 26.6852 35.0815 23.6547 35.0815H0V11.4268C0 8.39628 1.20386 5.48989 3.34676 3.347C5.48965 1.20411 8.39604 0.000244141 11.4265 0.000244141Z" fill="url(#paint0_linear_219_110)"/>
<path d="M27.7165 13.8049L25.3711 14.8796L23.7246 15.6342L23.6512 15.6673L21.3873 16.6898C21.3873 16.681 21.3836 16.6722 21.3807 16.6634C21.2471 16.1063 20.9894 15.5866 20.6268 15.1431L20.4176 14.6858L22.6763 13.6508L24.3471 12.8851L26.713 11.8009C26.8441 12.0055 26.9665 12.2147 27.08 12.4285L27.6981 13.777L27.7165 13.8049Z" fill="white"/>
<path d="M28.099 20.0013C27.9251 20.741 27.6729 21.46 27.3466 22.1462L20.011 20.8939L20.08 20.4894C20.6151 20.0548 21.0212 19.4821 21.2545 18.8334L28.099 20.0013Z" fill="white"/>
<path d="M14.8762 21.168L11.9128 23.2667L9.79425 24.7671C9.28844 24.2146 8.84189 23.6106 8.46191 22.965L10.5694 21.4719L12.0501 20.4229L13.5813 19.3387L14.8762 21.168Z" fill="white"/>
<path d="M15.1593 11.9501L14.2432 13.9952L12.9013 13.394L11.2019 12.6328L8.80957 11.5603C9.24561 10.9136 9.75122 10.3167 10.3174 9.78021L12.9277 10.9496L14.9236 11.8452L15.1593 11.9501Z" fill="white"/>
<path d="M25.5592 19.5677C25.2009 20.9591 24.4804 22.2307 23.471 23.2531C22.4616 24.2755 21.1993 25.0122 19.8127 25.3883C18.4261 25.7644 16.9646 25.7664 15.5769 25.3941C14.1892 25.0218 12.925 24.2886 11.9128 23.2689C11.3847 22.7355 10.9326 22.1318 10.5694 21.4749L8.46191 22.968C9.54353 24.8112 11.1526 26.2882 13.0815 27.2084C15.0105 28.1285 17.1708 28.4497 19.284 28.1305C21.3973 27.8113 23.3664 26.8663 24.9374 25.4174C26.5085 23.9684 27.6094 22.0821 28.0983 20.0016L25.5592 19.5677Z" fill="white"/>
<path d="M12.9267 10.9498C13.955 10.2087 15.1422 9.71805 16.3937 9.51704C17.6452 9.31604 18.9263 9.4102 20.135 9.79202C21.3436 10.1739 22.4464 10.8328 23.3553 11.7163C24.2641 12.5998 24.954 13.6834 25.3699 14.8807L27.7153 13.806C27.7109 13.795 27.7072 13.784 27.7028 13.7737L27.0847 12.4253C26.9688 12.2119 26.8464 12.0027 26.7177 11.7976C25.7634 10.2994 24.4513 9.06218 22.8996 8.19743C21.348 7.33269 19.6056 6.8676 17.8294 6.84408C16.0532 6.82056 14.2991 7.23934 12.7251 8.0627C11.1511 8.88605 9.80665 10.0881 8.81299 11.5605L11.2053 12.633C11.6924 11.9896 12.2726 11.4223 12.9267 10.9498Z" fill="white"/>
<path d="M9.70432 15.987C9.79403 15.5258 9.92321 15.0731 10.0904 14.6341L7.74142 13.5814C6.81685 15.9106 6.73634 18.4899 7.51385 20.8722L9.74249 19.294C9.50284 18.2059 9.48985 17.0802 9.70432 15.987Z" fill="white"/>
<path d="M25.2538 14.5665L23.6367 15.3791L23.5662 15.4151L21.3478 16.5286" fill="white"/>
<path d="M13.4736 19.3957L12.0415 20.4102C11.6789 19.7004 11.4547 18.9281 11.3808 18.1346L12.1795 17.5693L13.4736 19.3957Z" fill="white"/>
<path d="M14.5514 14.1767L13.6353 16.2219L11.737 15.3689C11.9952 14.6567 12.3802 13.9971 12.8733 13.4221L14.5514 14.1767Z" fill="white"/>
<path d="M23.7771 19.2638C23.4313 20.4877 22.7248 21.579 21.7496 22.3956C20.7745 23.2121 19.576 23.716 18.3104 23.8415C17.0448 23.967 15.7707 23.7083 14.6542 23.0992C13.5377 22.49 12.6306 21.5587 12.0511 20.4265C12.0477 20.4218 12.045 20.4166 12.043 20.4111C11.4755 19.295 11.2515 18.0356 11.3996 16.7923C11.5476 15.5489 12.061 14.3774 12.8747 13.4257L12.9019 13.3949C13.6398 12.5445 14.5909 11.9063 15.6575 11.5458C16.7241 11.1853 17.8674 11.1156 18.9699 11.3439C20.0723 11.5722 21.094 12.0902 21.9296 12.8446C22.7653 13.599 23.3848 14.5626 23.7243 15.636L23.6509 15.6683L21.387 16.6901C21.387 16.6813 21.3833 16.6725 21.3804 16.6637C21.1694 15.7758 20.6458 14.9935 19.9055 14.4598C19.1652 13.9261 18.2576 13.6767 17.3485 13.757C16.4394 13.8374 15.5896 14.2422 14.9544 14.8975C14.3192 15.5528 13.9411 16.4148 13.889 17.3259C13.837 18.2371 14.1146 19.1365 14.6711 19.8598C15.2276 20.5832 16.0258 21.0821 16.9198 21.2654C17.8138 21.4487 18.744 21.3042 19.5402 20.8582C20.3364 20.4122 20.9456 19.6946 21.2564 18.8365L23.7771 19.2638Z" fill="white"/>
</g>
<defs>
<linearGradient id="paint0_linear_219_110" x1="0.560829" y1="0.875257" x2="51.9105" y2="51.2743" gradientUnits="userSpaceOnUse">
<stop stop-color="#3B916F"/>
<stop offset="1" stop-color="#096AA5"/>
</linearGradient>
<clipPath id="clip0_219_110">
<rect width="136" height="35.0812" fill="white"/>
</clipPath>
</defs>
</svg>
