<svg width="70" height="21" viewBox="0 0 70 21" fill="none" xmlns="http://www.w3.org/2000/svg">
<path fill-rule="evenodd" clip-rule="evenodd" d="M37.8897 6.46002H40.3888V15.1337H37.8897V6.46002Z" fill="white"/>
<path d="M36.2794 9.99902C36.0099 9.50643 35.6246 9.08542 35.16 8.77388C35.7345 8.12468 36.0733 7.26245 36.0319 6.31855C35.9474 4.44674 34.3421 3.00183 32.4632 3.00183H27.2537V15.1328H33.2142C35.1397 15.1328 36.701 13.5776 36.701 11.657C36.701 11.0566 36.5489 10.4924 36.2794 9.99902ZM32.8264 13.0741H29.752V10.0967H32.8087C33.6113 10.0967 34.2906 10.7324 34.2906 11.5862C34.2906 12.4291 33.613 13.0741 32.8264 13.0741ZM32.1734 8.03795H29.752V5.06141H32.1548C32.9582 5.06141 33.6375 5.69629 33.6375 6.5501C33.6358 7.39212 32.9582 8.03795 32.1734 8.03795Z" fill="white"/>
<path d="M69.9524 3.36139H67.0774L64.8317 6.94924L62.5869 3.36139H59.711L63.3946 9.24711L59.711 15.1337H62.5869L64.8317 11.5458L67.0774 15.1337H69.9524L66.2697 9.24711L69.9524 3.36139Z" fill="white"/>
<path d="M49.3014 10.3089V15.1328H46.8031V9.8769C46.8031 9.11235 46.1703 8.49515 45.3964 8.51704C44.6512 8.53977 44.0759 9.18897 44.0759 9.93332V15.1311H41.5767V6.45746H44.0759V6.87089C44.6385 6.60565 45.2654 6.45746 45.9287 6.45746C46.2607 6.45746 46.5843 6.49451 46.8952 6.56524C48.2799 6.87931 49.2583 8.11203 49.2938 9.52662C49.2988 9.78091 49.3014 10.0436 49.3014 10.3089Z" fill="white"/>
<path fill-rule="evenodd" clip-rule="evenodd" d="M37.8897 3.00183H40.3888V5.49253H37.8897V3.00183Z" fill="white"/>
<path d="M59.0418 6.46H54.7321C54.7178 6.46 54.7043 6.45831 54.6891 6.45831C52.2863 6.45831 50.338 8.40085 50.338 10.7964C50.338 13.1802 52.2668 15.1134 54.6519 15.1311C54.6629 15.1336 54.6755 15.1336 54.6891 15.1336C55.6167 15.1336 56.5427 15.4048 56.5427 16.2089C56.5427 17.0248 55.7037 17.7178 54.6891 17.7178C53.6659 17.7178 52.8363 16.8909 52.8363 15.8713H50.3372C50.3372 18.266 52.2863 20.2085 54.6882 20.2085C57.0927 20.2085 59.0393 18.266 59.0393 15.8713C59.0393 15.8713 59.0874 14.5754 57.9849 13.6273C58.6439 12.8686 59.0401 11.8809 59.0401 10.7964C59.0401 9.96027 58.8036 9.18056 58.3921 8.51874H59.0418V6.46ZM54.6891 12.6429C53.6659 12.6429 52.8363 11.8161 52.8363 10.7964C52.8363 9.77671 53.6659 8.94985 54.6891 8.94985C55.7122 8.94985 56.5427 9.77671 56.5427 10.7964C56.5427 11.8161 55.7122 12.6429 54.6891 12.6429Z" fill="white"/>
<path d="M23.1536 0C20.4804 0 17.8377 0.673616 15.5092 1.94928C14.2622 2.63215 13.1106 3.47923 12.0875 4.4686C11.8467 4.70016 11.611 4.94266 11.3854 5.19021C10.631 6.01876 9.96182 6.92814 9.39999 7.89225C9.2006 8.23832 8.97924 8.57597 8.74268 8.89847C8.71142 8.94057 8.68185 8.98267 8.64805 9.02393C6.57898 11.7529 3.42678 13.3174 0 13.3174V18.3594C2.67316 18.3594 5.3159 17.6858 7.64435 16.411C8.88884 15.7298 10.0404 14.881 11.0661 13.8916C11.3068 13.6592 11.5426 13.4167 11.769 13.17C12.5243 12.3406 13.1909 11.4329 13.7527 10.468L13.7899 10.4057C13.98 10.0807 14.1895 9.76406 14.41 9.46262C14.4413 9.42136 14.4726 9.37842 14.5055 9.33463C16.5737 6.60649 19.7268 5.04117 23.1536 5.04117V0Z" fill="white"/>
<path d="M23.1536 13.3192C19.7268 13.3192 16.5737 11.7539 14.5038 9.02487C14.4734 8.98361 14.4413 8.94235 14.41 8.89772C14.1743 8.57775 13.953 8.23926 13.7536 7.89235C13.1917 6.92908 12.5235 6.02054 11.7681 5.19115C11.5426 4.94528 11.3068 4.70278 11.0661 4.47038C10.0429 3.48101 8.89222 2.63309 7.64435 1.95106C5.3159 0.67624 2.67316 0.00262451 0 0.00262451V5.04464C3.42678 5.04464 6.57982 6.60911 8.64974 9.3381C8.68185 9.37936 8.71226 9.4223 8.74352 9.46356C8.96572 9.76585 9.17525 10.0833 9.36281 10.4049L9.40252 10.4706C9.96351 11.433 10.631 12.3407 11.3854 13.171C11.6102 13.4168 11.8467 13.6593 12.0875 13.8917C13.1123 14.8811 14.2639 15.7299 15.5092 16.4111C17.8377 17.6859 20.4804 18.3595 23.1536 18.3595V13.3192Z" fill="white"/>
</svg>
