<svg width="76" height="16" viewBox="0 0 76 16" fill="none" xmlns="http://www.w3.org/2000/svg">
<path d="M25.0529 11.2675L19.6514 1.89809C18.4673 -0.0547368 15.5796 -0.0755122 14.437 1.98118L8.76552 11.7245C7.70596 13.5112 9.01476 15.7548 11.1338 15.7548H22.4976C24.6374 15.7548 26.237 13.4488 25.0529 11.2675Z" fill="white"/>
<path d="M17.2623 11.9946L16.9299 11.4129C16.6183 10.8728 15.9327 9.70939 15.9327 9.70939L11.3623 1.77348C10.1782 0.00763023 7.37359 -0.137794 6.18943 2.0851L0.871102 11.2883C-0.229957 13.2203 1.07885 15.734 3.46794 15.7549H14.7693H19.5891H22.456C19.5268 15.7757 18.592 14.259 17.2623 11.9946Z" fill="white"/>
<path d="M43.3888 14.9235V4.09991H52.3842V4.78548C52.3842 5.32562 51.948 5.76189 51.4079 5.76189H45.6325V8.67032H51.4079V10.3324H45.6325V13.2407H51.4079C51.948 13.2407 52.3842 13.677 52.3842 14.2172V14.9028L43.3888 14.9235Z" fill="white"/>
<path d="M65.3062 4.09991H63.1871C62.7924 4.09991 62.4392 4.26611 62.1899 4.57773L59.6347 7.79781L57.0793 4.59851C56.8301 4.28689 56.4769 4.12069 56.0822 4.12069H53.9631L58.2635 9.5221L53.9631 14.9235H56.0822C56.4769 14.9235 56.8301 14.7574 57.0793 14.4457L59.6347 11.2464L62.2107 14.4665C62.46 14.7574 62.8132 14.9443 63.2079 14.9443H65.3269L61.0265 9.54286L65.3062 4.09991Z" fill="white"/>
<path d="M36.3463 13.7817L39.2963 8.62955V14.9035H41.54V4.0799H40.1481C39.7118 4.0799 39.2963 4.30841 39.0886 4.70313L35.5569 11.1433L32.0252 4.70313C31.8174 4.30841 31.4019 4.0799 30.9656 4.0799H29.5737V14.9035H31.8174V8.62955L34.7674 13.7817H36.3463Z" fill="white"/>
<path d="M71.1647 15.0483C68.0485 15.0898 65.514 12.6384 65.4932 9.52221C65.4932 7.81869 66.0126 6.406 66.989 5.4296C67.9654 4.47396 69.3781 3.95459 71.0609 3.95459C73.0344 3.95459 74.5925 4.64016 75.7143 5.96974L75.0081 6.57221C74.5718 6.94615 73.9277 6.96693 73.4499 6.61376C72.8267 6.13594 72.0372 5.90741 71.1439 5.90741C68.9418 5.90741 67.633 7.237 67.633 9.48069C67.633 11.7451 68.9833 13.137 71.1439 13.137C72.058 13.137 72.8267 12.8877 73.4499 12.4307C73.907 12.0775 74.5509 12.0983 75.0081 12.4722L75.7143 13.0747C74.5925 14.3835 73.0968 15.0483 71.1647 15.0483Z" fill="white"/>
</svg>
