<svg width="65" height="15" viewBox="0 0 65 15" fill="none" xmlns="http://www.w3.org/2000/svg">
<path fill-rule="evenodd" clip-rule="evenodd" d="M2.04127 13.8989C1.57674 13.8989 1.34447 13.8989 1.16703 13.8085C1.01122 13.7285 0.884268 13.6014 0.804634 13.4448C0.714325 13.2669 0.714325 13.0337 0.714325 12.5678V0.309814H2.84222C3.30675 0.309814 3.53902 0.309814 3.71646 0.400522C3.87227 0.480252 3.99922 0.607648 4.07885 0.764219C4.16916 0.942168 4.16916 1.175 4.16916 1.64096V10.0441C4.16916 10.2773 4.16916 10.3937 4.21446 10.4826C4.25399 10.5609 4.31746 10.6245 4.39566 10.6644C4.48423 10.7097 4.60051 10.7097 4.83249 10.7097H9.79027C10.2548 10.7097 10.4871 10.7097 10.6645 10.8004C10.8203 10.8801 10.9473 11.0075 11.0269 11.1641C11.1172 11.3421 11.1172 11.5749 11.1172 12.0409V13.8989H2.04127Z" fill="white"/>
<path fill-rule="evenodd" clip-rule="evenodd" d="M38.5857 1.64096C38.5857 1.175 38.5857 0.942168 38.676 0.764219C38.7553 0.607648 38.8823 0.480252 39.0384 0.400522C39.2158 0.309814 39.4481 0.309814 39.9123 0.309814H41.1337C41.4138 0.309814 41.5538 0.309814 41.6793 0.350835C41.7901 0.386945 41.8919 0.446454 41.9785 0.525028C42.0763 0.613714 42.1458 0.73562 42.2852 0.979433L46.5332 8.42179V1.64096C46.5332 1.175 46.5332 0.942168 46.6235 0.764219C46.7031 0.607648 46.8298 0.480252 46.9859 0.400522C47.1633 0.309814 47.3956 0.309814 47.8601 0.309814H49.8504V12.5657C49.8504 13.0314 49.8504 13.264 49.7601 13.4419C49.6807 13.5985 49.5541 13.7256 49.398 13.8056C49.2208 13.8963 48.9888 13.8966 48.5249 13.8969L47.3033 13.8983C47.0228 13.8986 46.8826 13.8986 46.7571 13.8576C46.646 13.8215 46.5438 13.7623 46.4573 13.6837C46.3595 13.5947 46.2897 13.4728 46.1503 13.2287L41.9029 5.78723V12.5678C41.9029 13.0337 41.9029 13.2669 41.8123 13.4448C41.7329 13.6014 41.606 13.7285 41.4499 13.8085C41.2724 13.8989 41.0405 13.8989 40.5759 13.8989H38.5857V1.64096Z" fill="white"/>
<path fill-rule="evenodd" clip-rule="evenodd" d="M53.4301 0.309814H51.4399V12.5643C51.4399 13.0303 51.4399 13.2634 51.5302 13.4413C51.6098 13.5979 51.7368 13.725 51.8926 13.805C52.07 13.8955 52.3023 13.8955 52.7668 13.8955H54.7571V8.35246H55.3001C55.5321 8.35246 55.6484 8.35246 55.7557 8.38193C55.8506 8.40793 55.9403 8.45068 56.0203 8.50846C56.1109 8.57345 56.1839 8.66387 56.3301 8.84471L60.0216 13.407C60.1679 13.5875 60.2411 13.6779 60.3315 13.7432C60.4114 13.8007 60.5011 13.8435 60.5963 13.8697C60.7037 13.8989 60.8196 13.8989 61.0519 13.8989H64.1905L59.3083 7.87553C59.0657 7.57596 58.9442 7.42603 58.8978 7.25964C58.8568 7.11289 58.8568 6.95747 58.8978 6.81072C58.9445 6.64433 59.066 6.49469 59.3086 6.19541L59.3089 6.19512L64.0846 0.309814H60.9798C60.7487 0.309814 60.6333 0.309814 60.5262 0.338991C60.4316 0.36499 60.3421 0.407455 60.2622 0.464653C60.1719 0.529073 60.0989 0.618914 59.9526 0.798596L56.3428 5.22912C56.1966 5.4088 56.1233 5.49835 56.0332 5.56306C55.9533 5.62026 55.8639 5.66272 55.7692 5.68872C55.6622 5.7179 55.5465 5.7179 55.3154 5.7179H54.7571V1.64096C54.7571 1.175 54.7571 0.942168 54.6668 0.764219C54.5871 0.607648 54.4605 0.480252 54.3044 0.400522C54.1269 0.309814 53.8947 0.309814 53.4301 0.309814Z" fill="white"/>
<path fill-rule="evenodd" clip-rule="evenodd" d="M12.6908 13.5832C12.6005 13.4052 12.6005 13.1721 12.6005 12.7061V1.50229C12.6005 1.03633 12.6005 0.803496 12.6908 0.625547C12.7705 0.468976 12.8971 0.341581 13.0532 0.26185C13.2307 0.171143 13.4629 0.171143 13.9275 0.171143H18.2675C19.4242 0.171143 20.0027 0.171143 20.4773 0.298827C21.765 0.644902 22.7711 1.65395 23.1162 2.9461C23.2432 3.42217 23.2432 4.00253 23.2432 5.16295C23.2432 5.91837 22.9021 6.1954 22.6113 6.43113C22.3952 6.60648 22.2068 6.75929 22.2068 7.06984C22.2068 7.37576 22.4264 7.52857 22.6808 7.70595C23.0323 7.95062 23.4506 8.24181 23.4506 9.04576C23.4506 10.2042 23.4506 10.7837 23.324 11.2589C22.9792 12.5519 21.9728 13.5618 20.6842 13.9079C20.2105 14.0353 19.6331 14.0355 18.4781 14.0358L13.9278 14.0373C13.4632 14.0376 13.231 14.0376 13.0535 13.9469C12.8974 13.8671 12.7705 13.7397 12.6908 13.5832ZM18.7866 4.71808C19.0468 4.30787 19.2725 3.95284 19.2725 3.49902C19.2725 2.5801 18.5283 1.83508 17.6105 1.83508C16.6924 1.83508 15.9483 2.61505 15.9483 3.49902C15.9483 3.95284 16.18 4.30787 16.4475 4.71808C16.8136 5.27879 17.2467 5.94292 17.2467 7.1045C17.2467 8.26579 16.8136 8.92992 16.4475 9.49092C16.18 9.90084 15.9483 10.2559 15.9483 10.7097C15.9483 11.6286 16.6924 12.3736 17.6105 12.3736C18.5283 12.3736 19.2725 11.6286 19.2725 10.7097C19.2725 10.2559 19.0468 9.90084 18.7866 9.49092C18.4302 8.92992 18.0087 8.26579 18.0087 7.1045C18.0087 5.94292 18.4302 5.27879 18.7866 4.71808Z" fill="white"/>
<path fill-rule="evenodd" clip-rule="evenodd" d="M28.5181 11.195L27.9523 12.9728C27.8464 13.3056 27.7936 13.472 27.6926 13.595C27.6037 13.7039 27.4886 13.7883 27.3582 13.8403C27.2107 13.8989 27.0365 13.8989 26.6882 13.8989H24.1861L28.2024 1.17009C28.3077 0.836145 28.3602 0.669173 28.4612 0.545534C28.5501 0.436338 28.6655 0.351696 28.7959 0.299698C28.9439 0.240479 29.1182 0.240479 29.4673 0.240479H32.2233C32.5725 0.240479 32.747 0.240479 32.8947 0.299698C33.0254 0.351696 33.1406 0.436338 33.2294 0.545534C33.3304 0.669173 33.3829 0.835856 33.4882 1.1698L37.5069 13.8989H35.0033C34.6551 13.8989 34.4811 13.8989 34.3333 13.8403C34.2032 13.7883 34.0881 13.7039 33.9989 13.595C33.8982 13.472 33.8452 13.3056 33.7393 12.9728L33.1735 11.195H28.5181ZM29.2238 8.97643H32.4674L30.8453 3.88034L29.2238 8.97643Z" fill="white"/>
</svg>
