<svg width="66" height="18" viewBox="0 0 66 18" fill="none" xmlns="http://www.w3.org/2000/svg">
<g clip-path="url(#clip0_1_123)">
<path d="M22.8201 4.45703C23.734 4.45703 24.4394 4.66549 24.9624 5.11033C25.2086 5.31744 25.4038 5.57844 25.5329 5.87313C25.662 6.16782 25.7216 6.48828 25.7069 6.80967C25.721 7.28434 25.5834 7.75119 25.3142 8.14232C25.0361 8.50034 24.6587 8.76839 24.229 8.91292C24.7739 8.97032 25.2744 9.2396 25.6226 9.66263C25.9708 10.0857 26.1388 10.6286 26.0903 11.1743C26.0903 12.1161 25.7646 12.7955 25.1243 13.2403C24.5746 13.6126 23.8034 13.7987 22.8108 13.7987H18.5485V4.45703H22.8201ZM19.9817 8.41781H22.4385C23.0918 8.41781 23.5553 8.29866 23.8493 8.07719C24.1434 7.85572 24.2812 7.47601 24.2812 6.97905C24.2812 6.48209 24.1379 6.16939 23.8493 5.95907C23.5609 5.74875 23.0918 5.63335 22.4646 5.63335H19.9817V8.41781ZM19.9817 12.6131H22.6209C23.1084 12.6341 23.5935 12.535 24.0336 12.3246C24.2385 12.2067 24.4068 12.0345 24.5198 11.8268C24.6328 11.6192 24.6862 11.3844 24.6739 11.1483C24.6739 10.5992 24.5027 10.1953 24.1769 9.94592C23.8512 9.69649 23.3413 9.57365 22.66 9.57365H19.9817V12.6131Z" fill="white"/>
<path d="M28.9939 7.03116V13.7875H27.6129V7.03116H28.9939ZM28.9939 5.84181H27.6129V4.45703H28.9976L28.9939 5.84181Z" fill="white"/>
<path d="M55.9711 13.7876V7.03119H57.354V8.50346C57.6053 7.74405 58.3628 7.03119 59.5875 7.03119H60.051V8.41411H59.3661C58.0874 8.41411 57.3448 8.9185 57.3448 9.67792V13.7876H55.9711Z" fill="white"/>
<path d="M53.8251 7.59327C53.3548 7.09693 52.6227 6.84875 51.6287 6.84875C50.7912 6.84875 50.1118 6.99207 49.6149 7.30476C49.3268 7.47965 49.0805 7.71538 48.8931 7.99541C48.7057 8.27538 48.5817 8.59296 48.5298 8.92591L49.9034 9.04506C49.9332 8.8706 50.0015 8.70493 50.1032 8.56009C50.205 8.41525 50.3376 8.2948 50.4915 8.20748C50.813 8.0372 51.1742 7.9562 51.5375 7.97298C52.5575 7.97298 53.0669 8.44327 53.0657 9.38378V9.47497H50.9643C49.9927 9.47497 49.2315 9.80816 48.6936 10.4875C48.4112 10.8337 48.2578 11.2673 48.2599 11.7141C48.2599 12.8606 49.2575 13.7894 50.4934 13.7894C50.6144 13.7894 50.9624 13.7764 51.1542 13.7503C51.2232 13.7408 51.2915 13.7272 51.3589 13.7094C51.6424 13.6619 51.9189 13.5787 52.1816 13.4618C52.5171 13.2888 52.8146 13.0501 53.0564 12.7602V13.7876H54.443V9.47497C54.4393 8.65232 54.2289 8.01766 53.8251 7.59327ZM53.0526 10.9956C53.0191 11.4647 52.8107 12.0529 52.4254 12.3767C52.0084 12.7304 51.5097 12.7285 50.9215 12.7285C50.617 12.7423 50.3171 12.6502 50.0727 12.4679C49.9702 12.396 49.8868 12.3 49.8301 12.1884C49.7733 12.0768 49.7448 11.9529 49.747 11.8276C49.747 11.0459 50.3054 10.6123 51.4073 10.5359H53.0526V10.9956Z" fill="white"/>
<path d="M45.0473 4.45703L41.4886 12.2669L37.9317 4.45703H36.331V13.7894H37.7177V7.03116L40.7962 13.7894H42.181L45.2669 7.01627V13.7894H46.6536V4.45703H45.0473Z" fill="white"/>
<path d="M63.8816 12.6112V8.41407H65.4191V7.03115H63.8816V5.14941H62.4983V7.03115H61.2478V8.41407H62.4983V12.3227C62.4983 13.218 63.0047 13.7838 63.9578 13.7838H65.4191V12.6112H63.8816Z" fill="white"/>
<path d="M33.1855 12.6112V8.41407H34.7229V7.03115H33.1855V5.14941H31.8044V7.03115H30.5518V8.41407H31.8044V12.3227C31.8044 13.218 32.3088 13.7838 33.2637 13.7838H34.7229V12.6112H33.1855Z" fill="white"/>
<path d="M9.80429 12.6913H4.77698V13.1305H9.80429V12.6913Z" fill="white"/>
<path d="M6.03521 15.4236H2.26428V15.8629H6.03521V15.4236Z" fill="white"/>
<path d="M3.51691 12.6932H1.00792V13.1324H3.51691V12.6932Z" fill="white"/>
<path d="M9.80429 11.4219H6.03334V11.8611H9.80429V11.4219Z" fill="white"/>
<path d="M4.77327 11.4219H2.26614V11.8611H4.77327V11.4219Z" fill="white"/>
<path d="M9.80424 5.74316H3.51877V6.18242H9.80424V5.74316Z" fill="white"/>
<path d="M4.77327 4.2821H2.26428V4.72136H4.77327V4.2821Z" fill="white"/>
<path d="M13.1378 8.50529V8.49417C13.5756 7.72953 13.805 6.86346 13.8032 5.9824C13.8015 5.10135 13.5685 4.23619 13.1276 3.47336C12.6868 2.71054 12.0535 2.07675 11.291 1.63534C10.5285 1.19392 9.66351 0.960322 8.78242 0.957886H3.51877V1.58699H8.79735C9.4735 1.58967 10.1399 1.74808 10.7449 2.04992C11.35 2.35176 11.8774 2.78893 12.2862 3.32751C12.695 3.86609 12.9742 4.4916 13.1022 5.15553C13.2302 5.81945 13.2035 6.50395 13.0243 7.15588C13.1556 6.59196 13.158 6.00566 13.0313 5.44066C12.9046 4.87567 12.652 4.34654 12.2925 3.89269C11.9328 3.43883 11.4755 3.07196 10.9545 2.81937C10.4334 2.5668 9.86212 2.43502 9.28313 2.43387H4.77699V3.06298H9.28872C9.79428 3.06315 10.2927 3.18257 10.7435 3.41155C11.1942 3.64053 11.5846 3.9726 11.8829 4.3808C12.1812 4.789 12.379 5.2618 12.4602 5.7608C12.5415 6.25981 12.5039 6.77095 12.3505 7.25267C12.4491 6.88101 12.4613 6.49167 12.3862 6.11455C12.311 5.73742 12.1504 5.38252 11.9169 5.07705C11.6833 4.77158 11.3828 4.52367 11.0385 4.35232C10.6943 4.18097 10.3154 4.09073 9.93082 4.08853H6.02218V4.72323H9.9122C10.2426 4.72384 10.567 4.811 10.8533 4.97602C11.1395 5.14104 11.3774 5.37816 11.5435 5.66377C11.7096 5.94939 11.7979 6.27352 11.7997 6.60389C11.8015 6.93427 11.7168 7.25937 11.5539 7.54677C10.9917 7.33772 10.3967 7.23055 9.7968 7.23036H4.77141V7.85944H9.7968C10.8219 7.85962 11.8149 8.21739 12.6044 8.87111C13.3941 9.52477 13.9309 10.4335 14.1224 11.4405C13.9314 10.6088 13.4641 9.86631 12.7968 9.33427C12.1295 8.80222 11.3017 8.51199 10.4482 8.51088H3.51692V9.13443H10.4576C11.2113 9.13695 11.939 9.41041 12.5079 9.90478C13.0768 10.3992 13.449 11.0817 13.5566 11.8277C13.4504 11.2498 13.1453 10.7273 12.6942 10.3509C12.243 9.97453 11.6743 9.76805 11.0867 9.76725H3.52063V10.3964H11.0848C11.5849 10.3964 12.0645 10.595 12.4181 10.9486C12.7717 11.3022 12.9703 11.7817 12.9703 12.2818C12.9703 12.7819 12.7717 13.2614 12.4181 13.615C12.0645 13.9686 11.5849 14.1673 11.0848 14.1673H2.26428V14.7964H11.0867C11.6743 14.7956 12.243 14.5891 12.6942 14.2128C13.1453 13.8364 13.4504 13.3139 13.5566 12.736C13.4475 13.4825 13.0734 14.165 12.5027 14.6584C11.932 15.1519 11.2027 15.4235 10.4482 15.4237H7.28412V16.0527H10.4482C11.2679 16.0516 12.0648 15.7839 12.7189 15.29C13.373 14.7961 13.8486 14.1028 14.074 13.3148C13.8385 14.2694 13.2904 15.1178 12.517 15.725C11.7436 16.332 10.7894 16.663 9.80614 16.6651H3.52622V17.2942H9.7968C10.8194 17.2991 11.8192 16.992 12.6626 16.4138C13.5061 15.8356 14.153 15.0138 14.5171 14.0582C14.8812 13.1026 14.9452 12.0587 14.7004 11.0658C14.4555 10.073 13.9137 9.17843 13.1471 8.5016L13.1378 8.50529Z" fill="white"/>
</g>
<defs>
<clipPath id="clip0_1_123">
<rect width="64.5238" height="16.4075" fill="white" transform="translate(0.952423 0.900513)"/>
</clipPath>
</defs>
</svg>
