<svg width="22" height="17" viewBox="0 0 22 17" fill="none" xmlns="http://www.w3.org/2000/svg">
<path d="M5.7639 9.90867L1.11086 8.39261C1.11086 8.39261 0.554767 8.167 0.733828 7.65539C0.770689 7.54989 0.845046 7.46012 1.06748 7.30585C2.09847 6.58722 20.1503 0.0989198 20.1503 0.0989198C20.1503 0.0989198 20.66 -0.0728326 20.9606 0.0414042C21.0349 0.0644243 21.1019 0.106785 21.1545 0.164153C21.2071 0.221521 21.2435 0.291837 21.2601 0.367909C21.2926 0.502271 21.3061 0.640506 21.3004 0.778621C21.299 0.898101 21.2845 1.00884 21.2736 1.1825C21.1636 2.95643 17.8735 16.1958 17.8735 16.1958C17.8735 16.1958 17.6766 16.9705 16.9713 16.9971C16.798 17.0027 16.6253 16.9733 16.4636 16.9107C16.3019 16.8482 16.1544 16.7537 16.03 16.6329C14.6459 15.4424 9.86229 12.2276 8.80524 11.5205C8.7814 11.5043 8.76132 11.4831 8.74635 11.4585C8.73139 11.4338 8.72189 11.4062 8.71849 11.3775C8.70371 11.303 8.78474 11.2107 8.78474 11.2107C8.78474 11.2107 17.1143 3.80677 17.336 3.02952C17.3531 2.9693 17.2883 2.93959 17.2013 2.96596C16.648 3.16949 7.05753 9.22595 5.99905 9.89437C5.92286 9.91742 5.84233 9.92232 5.7639 9.90867Z" fill="white"/>
</svg>
